<svg id="Layer_1" height="512" viewBox="0 0 512 512" width="512" xmlns="http://www.w3.org/2000/svg" data-name="Layer 1"><path d="m466.17 363.03v69.65h-154.45-111.44-154.45v-69.65z" fill="#00efd1"/><path d="m466.17 97.26v265.77h-420.34v-265.77h90.28l-1.01 185.81s85.71.01 144.77.01a61.835 61.835 0 1 0 55.2-89.71c-.16 0-.33 0-.49.01v-96.12z" fill="#fedb41"/><path d="m390.03 40.81v31.65h-55.45v-31.65a27.668 27.668 0 0 1 27.63-27.72h.1a27.662 27.662 0 0 1 27.72 27.63z" fill="#f4b844"/><path d="m284.14 220.14a61.691 61.691 0 0 1 50.44-26.76c.16-.01.33-.01.49-.01a61.828 61.828 0 1 1 -50.93 26.77z" fill="#00efd1"/><path d="m136.11 97.26.31-58.1a26.2 26.2 0 0 1 26.4-26.07h199.39a27.668 27.668 0 0 0 -27.63 27.72v152.57a61.844 61.844 0 0 0 -54.71 89.7c-59.06 0-144.77-.01-144.77-.01zm147.68-2.95a49.545 49.545 0 1 0 -49.54 49.54 49.54 49.54 0 0 0 49.54-49.54z" fill="#00acea"/><path d="m311.72 432.68 18.57 66.23h-148.58l18.57-66.23z" fill="#00acea"/><path d="m234.25 44.77a49.54 49.54 0 1 1 -49.55 49.54 49.54 49.54 0 0 1 49.55-49.54z" fill="#00efd1"/><g fill="#083863"><path d="m466.17 91h-125.17v-13h49.03c3.313 0 5.97-2.227 5.97-5.54v-31.748a33.714 33.714 0 0 0 -33.729-33.712h-199.451a32.2 32.2 0 0 0 -32.4 31.953l-.278 52.047h-84.312a6.085 6.085 0 0 0 -5.83 6.26v335.42c0 3.314 2.516 6.32 5.83 6.32h146.536l-15.205 54h-26.591a6 6 0 1 0 0 12h210.86a6 6 0 1 0 0-12h-26.591l-15.2-54h146.531c3.314 0 5.83-3.006 5.83-6.32v-335.42a6.085 6.085 0 0 0 -5.83-6.26zm-186.93 164.2a55.433 55.433 0 0 1 9.7-31.441c.1-.131.193-.264.281-.4a56.03 56.03 0 0 1 45.4-24.162c.107 0 .17-.194.278-.194h.169a55.969 55.969 0 1 1 -49.846 81.325v.023a55.139 55.139 0 0 1 -5.982-25.151zm83.082-236.2h.043a21.715 21.715 0 0 1 21.635 21.81v25.19h-43v-25.2a21.312 21.312 0 0 1 21.323-21.71l-.061-6.045zm-220.212 78.292.31-58.177a20.3 20.3 0 0 1 20.4-20.115h173.667c-5.129 6-7.487 13.779-7.487 21.81v146.88a59.615 59.615 0 0 0 -15.058 3.151 6.458 6.458 0 0 0 -4.542-1.841h-149.13a6 6 0 1 0 0 12h134.076a76.664 76.664 0 0 0 -13.257 13h-120.819a6 6 0 1 0 0 12h113.5a73.584 73.584 0 0 0 -4.652 13h-108.848a6 6 0 1 0 0 12h107.092c-.073 2-.122 2.743-.122 4.045a67.808 67.808 0 0 0 3.606 21.955c-48.62 0-110.419.031-129.713.029zm180.266 395.708h-132.752l15.205-54h102.342zm137.624-66h-408v-58h408zm-408-70v-254h78.077l-.977 179.907a6.151 6.151 0 0 0 1.746 4.329 6.03 6.03 0 0 0 4.254 1.8s82.325.026 141.206.027a67.514 67.514 0 0 0 58.764 33.958c37.4 0 68.04-30.424 68.04-67.826 0-35.545-28.11-64.767-62.11-67.583v-84.612h119v254z"/><path d="m234.25 149.85a55.54 55.54 0 1 0 -55.55-55.54 55.6 55.6 0 0 0 55.55 55.54zm0-99.08a43.54 43.54 0 1 1 -43.55 43.54 43.589 43.589 0 0 1 43.55-43.54z"/><path d="m234.25 113.02a5.622 5.622 0 0 1 -5.62-5.61 6 6 0 1 0 -12 0 17.621 17.621 0 0 0 10.37 16.032v2.558a6 6 0 0 0 12 0v-1.649a17.6 17.6 0 0 0 -4.75-34.551 5.615 5.615 0 1 1 5.61-5.62 6 6 0 0 0 12 0 17.627 17.627 0 0 0 -11.86-16.627v-2.553a6 6 0 0 0 -12 0v2.735a17.6 17.6 0 0 0 6.25 34.065 5.61 5.61 0 1 1 0 11.22z"/><path d="m160.27 176h149.13a6 6 0 0 0 0-12h-149.13a6 6 0 1 0 0 12z"/><path d="m324.737 273.222a6 6 0 0 0 4.248 1.778h.015a6 6 0 0 0 4.243-1.757l27.61-27.61a6 6 0 1 0 -8.486-8.486l-23.346 23.347-11.228-11.336a6 6 0 0 0 -8.526 8.444z"/></g></svg>